name processed_emg_signals
nRows=57
nColumns=7
 
endheader
time	RGLTMED	RRF	RADDLONG	RST	RTA	RGM
0.0	0.0119229472726839	0.0604543196655558	0.0047739449075942	0.0144332015654869	0.0057315633054236	0.0911616307403589
0.001	0.0128040167014753	0.0644368373083817	0.0064957079387135	0.0125300616450825	0.0081503788589218	0.0955738399661654
0.002	0.0136931982861686	0.0684207783278661	0.0082165317006753	0.0106335860796847	0.0105571331680378	0.0999988615102929
0.003	0.0145899545455359	0.072403401199383	0.0099353808418027	0.0087450972281183	0.0129503689788253	0.1044340440602067
0.004	0.0154937368426501	0.0763819496740543	0.0116512207000853	0.00686591779558	0.0153286485596649	0.1088767269657776
0.005	0.0164039860881516	0.0803536565110833	0.0133630186988181	0.0049973693253076	0.0176905559911169	0.1133242444567745
0.006	0.0173201334579348	0.0843157472631506	0.0150697457419291	0.0031407707000089	0.0200346994216204	0.1177739298891334
0.007	0.0182416011228515	0.0882654441078169	0.0167703776060684	0.0012974366562504	0.0223597132833734	0.1222231200082746
0.008	0.0191678029880795	0.0921999697180694	0.0184638963267543	0.0005313236852349	0.0246642604628899	0.1266691592178852
0.009000000000000001	0.0200981454400686	0.0961165511651687	0.0201492915758852	0.0023442082706829	0.0269470344210632	0.1311094038424878
0.01	0.0210320280990627	0.1000124238470093	0.0218255620281159	0.0041399235435072	0.0292067612575808	0.135541226372156
0.011	0.0219688445755247	0.103884835435044	0.02349171671369	0.0059171858514546	0.0314422017146421	0.1399620196774767
0.012	0.0229079832288957	0.1077310498326689	0.0251467763552667	0.0076747228288321	0.0336521531150836	0.1443692011827016
0.013000000000000001	0.0238488279275138	0.1115483511376434	0.026789774686449	0.0094112747522389	0.0358354512300655	0.1487602169847201
0.014	0.0247907588086558	0.1153340476009929	0.0284197597495715	0.0111255958685307	0.0379909720716073	0.1531325459052931
0.015	0.0257331530379305	0.119085475574483	0.030035795170456	0.0128164556940711	0.0401176336054286	0.1574837034638364
0.016	0.0266753855673316	0.1228000034386293	0.0316369614076984	0.0144826402846381	0.0422143973796195	0.1618112457581973
0.017	0.0276168298913916	0.1264750355030511	0.0332223569743093	0.0161229534754844	0.0442802700648973	0.1661127732412951
0.018000000000000002	0.0285568588008298	0.1301080158707679	0.0347910996295287	0.0177362180912966	0.0463143049022833	0.1703859343821978
0.019	0.0294948451331331	0.1336964322580759	0.0363423275388512	0.0193212771259455	0.0483156030541929	0.1746284292010262
0.02	0.0304301625194283	0.137237819761427	0.0378752004004036	0.02087699489202	0.0502833148550773	0.178838012668096
0.021	0.0313621861269643	0.1407297645629265	0.0393889005359667	0.022402258140295	0.0522166409581651	0.1830124979586557
0.022	0.0322902933964923	0.1441699075658786	0.0408826339449225	0.0238959771494128	0.0541148333751764	0.18714975955561
0.023	0.0332138647737989	0.1475559479520226	0.0423556313195113	0.0253570867860616	0.0559771964065347	0.1912477361938589
0.024	0.0341322844346111	0.1508856466520349	0.0438071490197965	0.0267845475361927	0.0578030874602333	0.195304433641012
0.025	0.035044941002106	0.1541568297212988	0.0452364700068933	0.0281773465078967	0.0595919177579877	0.1993179273103036
0.026000000000000002	0.0359512282561023	0.1573673916131849	0.0466429047329663	0.029534498406599	0.0613431529275964	0.2032863647023016
0.027	0.0368505458331013	0.1605152983426085	0.0480257919866284	0.030855046483375	0.0630563134806684	0.2072079676725438
0.028	0.0377422999162139	0.1635985905328729	0.0493844996922734	0.0321380634570648	0.0647309751749554	0.2110810345225733
0.029	0.0386259039140837	0.1666153863391493	0.0507184256618939	0.0333826524109319	0.0663667692609484	0.2149039419123138
0.03	0.0395007791279913	0.1695638842419628	0.0520269982980027	0.0345879476644842	0.0679633826128058	0.2186751465920492
0.031	0.0403663554064216	0.1724423657042147	0.0533096772463771	0.0357531156211827	0.0695205577443109	0.2223931869531253
0.032	0.0412220717864765	0.1752491976851242	0.0545659539975955	0.0368773555926019	0.0710380927109447	0.2260566843974035
0.033	0.0420673771215222	0.1779828350044467	0.055795352436635	0.0379599005998044	0.0725158408996301	0.2296643445264324
0.034	0.0429017306945364	0.1806418225501407	0.0569974293401029	0.0390000181525278	0.0739537107078278	0.2332149581518189
0.035	0.0437246028164914	0.1832247973226359	0.0581717748209452	0.0399970110069326	0.0753516651137241	0.2367074021284723
0.036000000000000004	0.0445354754092061	0.1857304903088652	0.0593180127207526	0.0409502179025991	0.076709721139328	0.2401406400124093
0.037	0.0453338425720292	0.1881577281793372	0.0604358009499963	0.0418590142794839	0.0780279492084402	0.2435137225446035
0.038	0.0461192111317897	0.1905054348017349	0.0615248317765788	0.0427228129755389	0.0793064724017253	0.2468257879624431
0.039	0.0468911011755995	0.1927726325649316	0.0625848320633239	0.0435410649056905	0.0805454656112118	0.2500760621399169
0.04	0.0476490465662789	0.1949584435078086	0.0636155634549517	0.0443132597228736	0.081745154596854	0.2532638585575687
0.041	0.0483925954404175	0.1970620902477868	0.064616822515199	0.0450389264617933	0.0829058149478015	0.2563885781027558
0.042	0.0491213106892684	0.1990828967046595	0.0655884408145926	0.0457176341660572	0.0840277709513218	0.2594497087004642
0.043000000000000003	0.0498347704227311	0.2010202886159785	0.0665302849693903	0.0463489924992583	0.0851113943724283	0.2624468247744355
0.044	0.0505325684165967	0.2028737938411292	0.0674422566319446	0.0469326523404417	0.0861571031474122	0.2653795865380967
0.045	0.0512143145432883	0.2046430424522796	0.0683242924327575	0.0474683063643529	0.0871653599945413	0.2682477391142985
0.046	0.0518796351861932	0.206327766611472	0.0691763638744733	0.047955689606687	0.0881366709451586	0.2710511114828528
0.047	0.0525281736377896	0.2079278002342914	0.0699984771779731	0.0483945800145698	0.0890715837982503	0.2737896152548094
0.048	0.0531595904817622	0.209443078441852	0.0707906730808305	0.0487847989824115	0.0899706865015017	0.276463243272891
0.049	0.0537735639592769	0.2108736368040026	0.0715530265883674	0.0491262118732239	0.0908346054618317	0.2790720680378134
0.05	0.0543697903196009	0.2122196103778423	0.0722856466774674	0.0494187285253743	0.0916640037885694	0.2816162399609461
0.051000000000000004	0.0549479841551539	0.2134812325465306	0.0729886759533816	0.0496623037446554	0.0924595794726892	0.2840959854445983
0.052000000000000005	0.0555078787209587	0.2146588336642203	0.0736622902597565	0.0498569377814157	0.0932220635057126	0.2865116047923268
0.053	0.0560492262384488	0.2157528395133235	0.0743066982421173	0.0500026767924385	0.093952217942234	0.2888634699525944
0.054	0.0565717981833689	0.2167637695808053	0.0749221408651407	0.0500996132871314	0.0946508339103627	0.2911520221001879
0.055	0.0570753855575027	0.2176922351603775	0.07550889088406	0.0501478865576466	0.095318729574709	0.2933777690610805
0.056	0.0575597991437288	0.2185389372877016	0.0760672522707523	0.0501476830924607	0.0959567480569077	0.2955412825879022
